# xmcd
#
# Track frame offsets:
#	150
#	23337
#	40242
#	62085
#	85388
#	111958
#	132264
#	146175
#	162442
#	180348
#	204040
#	222803
#	243902
#	257732
#	276506
#	294885
#	317012
#	335825
#
# Disc length: 4748 seconds
#
# Revision: 0
# Processed by: cddbd v1.5.2PL0 Copyright (c) Steve Scherf et al.
# Submitted via: EasyCDDAExtractor 2010.6.0.0
#
DISCID=08128a12
DTITLE=Various Artist - 2010 Steppers Go 2 Work Vol 2010
DYEAR=2010
DGENRE=R&B
TTITLE0=Jens Gad - El Momento
TTITLE1=DJ Cam - Summer Madness (Exclusive)
TTITLE2=Kruder and Dorfmeister - East West
TTITLE3=Jeff Bennett Experience - Sympahty
TTITLE4=KEM - Human Touch
TTITLE5=KEM - You're On My Mind
TTITLE6=Mr. Diggs - Na Na Naaa
TTITLE7=Shapro - Olivia (Remix)
TTITLE8=Shorty Smooth DRop - Hey Hey Ho
TTITLE9=9 Lazy 9 - Electric Lazyland
TTITLE10=Ty Causey - Rocket To The Moon
TTITLE11=Chilly Gonzalez - Never Stop
TTITLE12=The Alchemist - Bring You Light
TTITLE13=Tony Rich - With You Through It
TTITLE14=Will Downing  - Coulda Been Shoulda Been
TTITLE15=Gerald Levert  - Can I Stay
TTITLE16=Eric Benet - Sometimes I Cry
TTITLE17=R. Kelly - When A Woman Loves
EXTD=
EXTT0=
EXTT1=
EXTT2=
EXTT3=
EXTT4=
EXTT5=
EXTT6=
EXTT7=
EXTT8=
EXTT9=
EXTT10=
EXTT11=
EXTT12=
EXTT13=
EXTT14=
EXTT15=
EXTT16=
EXTT17=
PLAYORDER=
